PathFileType	4	(X/Y/Z)	C:\Users\dbl\Desktop\20210112(1)\20210112\bx_y_0_901.trc
DataRate	CameraRate	NumFrames	NumMarkers	Units	OrigDataRate	OrigDataStartFrame	OrigNumFrames
50.00	50.00	       5	43	mm	50.00	286	       457
Frame#	Time	Top.Head			R.Acromium			L.Acromium			Sternum			R.ASIS			L.ASIS			V.Sacral			R.Thigh.Upper			R.Thigh.Front			R.Thigh.Rear			R.Knee.Lat			R.Knee.Med			R.Shank.Upper			R.Shank.Front			R.Shank.Rear			R.Ankle.Lat			R.Midfoot.Lat			R.Toe.Lat			R.Toe.Tip			R.Toe.Med			R.Ankle.Med			R.Midfoot.Sup			R.Heel			L.Thigh.Upper			L.Thigh.Front			L.Thigh.Rear			L.Knee.Lat			L.Knee.Med			L.Shank.Upper			L.Shank.Front			L.Shank.Rear			L.Ankle.Lat			L.Midfoot.Lat			L.Toe.Lat			L.Toe.Tip			L.Toe.Med			L.Ankle.Med			L.Midfoot.Sup			L.Heel			origin1 front left			origin2 front right			origin 3 back right			origin 4 back leftt			
		X1	Y1	Z1	X2	Y2	Z2	X3	Y3	Z3	X4	Y4	Z4	X5	Y5	Z5	X6	Y6	Z6	X7	Y7	Z7	X8	Y8	Z8	X9	Y9	Z9	X10	Y10	Z10	X11	Y11	Z11	X12	Y12	Z12	X13	Y13	Z13	X14	Y14	Z14	X15	Y15	Z15	X16	Y16	Z16	X17	Y17	Z17	X18	Y18	Z18	X19	Y19	Z19	X20	Y20	Z20	X21	Y21	Z21	X22	Y22	Z22	X23	Y23	Z23	X24	Y24	Z24	X25	Y25	Z25	X26	Y26	Z26	X27	Y27	Z27	X28	Y28	Z28	X29	Y29	Z29	X30	Y30	Z30	X31	Y31	Z31	X32	Y32	Z32	X33	Y33	Z33	X34	Y34	Z34	X35	Y35	Z35	X36	Y36	Z36	X37	Y37	Z37	X38	Y38	Z38	X39	Y39	Z39	X40	Y40	Z40	X41	Y41	Z41	X42	Y42	Z42	X43	Y43	Z43	

286	5.700	-446.31525	108.14473	1774.49622	-502.81494	-80.51973	1472.09668	-515.91296	281.24927	1485.51074	-505.79312	98.04134	1350.73120	-658.59778	-8.75343	1043.28381	-649.81171	210.75313	1054.55530	-854.36780	92.96906	1077.37573	-725.87866	-71.13235	862.59143	-649.68060	-9.66897	808.72900	-750.48462	-50.07688	717.75861	-743.61487	-28.80734	614.24316	-721.08362	78.57757	573.43164	-748.80316	-25.69802	567.44244	-695.07819	18.24326	523.93243	-787.50922	-36.60806	485.85416	-769.46790	-6.27978	206.95863	-663.76697	-68.28336	161.62181	-622.26160	-79.38522	157.18149	-559.70422	-37.31662	162.81927	-603.55237	20.92555	166.14993	-720.82599	76.17577	218.79456	-675.96295	55.10603	158.73520	-796.34424	53.38612	174.94507	-707.48346	276.78122	879.10638	-648.86047	210.77763	815.55670	-749.43793	274.70868	746.62463	-771.57117	248.14540	636.98895	-728.05292	142.48877	571.44202	-767.77997	244.69548	574.53668	-708.75110	204.61687	535.49438	-800.25397	256.47818	498.73029	-772.94940	223.64066	204.26459	-666.92883	299.44400	159.55008	-629.32947	307.03174	162.69774	-560.21497	258.11032	165.56468	-595.05560	221.60530	172.64194	-714.22327	153.40840	218.29182	-676.20801	174.83177	158.25459	-797.35675	173.43730	183.13292	-528.12329	304.33841	146.51521	-518.01080	-72.75176	142.81262	-875.67023	-78.71355	141.13565	-882.66852	296.09384	144.52036	
287	5.720	-457.18591	109.67950	1780.42920	-508.67712	-79.43464	1477.37354	-522.09961	282.54880	1489.54480	-509.32892	99.08041	1355.33557	-656.50677	-8.80749	1044.08728	-647.89709	211.17499	1055.51245	-852.63043	93.36429	1076.60425	-723.61176	-70.93798	862.62170	-647.61438	-9.44374	808.57697	-748.45355	-49.84054	717.87366	-742.09369	-28.73215	614.35364	-719.82660	78.70950	573.39728	-747.46552	-25.53355	567.44147	-693.92542	18.36903	523.80615	-786.51740	-36.29919	485.98523	-769.41125	-6.27853	206.99724	-663.74664	-68.25406	161.62961	-622.26880	-79.37563	157.24132	-559.75238	-37.29968	162.86313	-603.54327	20.93852	166.16557	-720.51361	76.35533	218.56825	-675.95148	55.11713	158.69193	-796.24658	53.40206	174.82674	-705.51099	277.26935	879.33044	-646.75305	211.57617	815.64197	-747.49005	275.01010	746.93109	-770.19525	248.24222	637.21552	-726.70453	142.77032	571.54456	-766.67163	244.76001	574.59424	-707.74048	204.75893	535.40222	-799.42590	256.30344	498.85077	-772.83746	223.66541	204.26578	-666.94397	299.45190	159.54343	-629.39539	307.06070	162.63016	-560.26495	258.17252	165.50006	-595.02728	221.66255	172.69034	-714.05096	153.41063	218.26067	-676.19678	174.85320	158.24551	-797.39917	173.37251	183.08266	-528.14270	304.31357	146.51012	-518.00714	-72.71746	142.80667	-875.76074	-78.70780	141.30589	-882.65192	296.08679	144.54866	
288	5.740	-467.98505	111.26299	1786.01770	-514.57697	-78.28861	1482.44238	-528.36847	283.86386	1493.32996	-512.92029	100.20302	1359.79919	-654.58032	-8.88061	1044.79614	-645.99854	211.63521	1056.48560	-850.97528	93.81190	1075.80530	-721.41370	-70.77744	862.63965	-645.58691	-9.26510	808.41949	-746.56482	-49.46648	717.88495	-740.52258	-28.71002	614.50806	-718.56207	78.87043	573.34674	-746.23456	-25.36329	567.48950	-692.79248	18.46222	523.70068	-785.53748	-35.97108	486.05356	-769.36279	-6.25647	207.01511	-663.66486	-68.23476	161.64467	-622.27972	-79.35231	157.29253	-559.79272	-37.27399	162.90097	-603.60590	20.93636	166.19054	-720.23010	76.48721	218.36349	-675.93616	55.11992	158.63049	-796.08337	53.42323	174.65384	-703.50787	277.67520	879.54938	-644.70782	212.19987	815.82001	-745.58856	275.22647	747.18396	-768.83057	248.27817	637.37585	-725.36462	142.98466	571.59985	-765.57483	244.78874	574.67029	-706.77289	204.95999	535.30939	-798.62866	256.18701	498.99677	-772.75104	223.70084	204.24138	-666.95691	299.46811	159.53275	-629.49213	307.08710	162.57307	-560.36212	258.20218	165.50102	-595.01807	221.72192	172.73924	-713.93127	153.43452	218.24532	-676.18475	174.87746	158.23837	-797.38403	173.34433	183.07043	-528.17664	304.30722	146.46629	-517.99164	-72.68947	142.81854	-875.86993	-78.67433	141.40324	-882.63403	296.11407	144.59578	
289	5.760	-478.72827	112.86256	1791.28320	-520.46692	-77.07604	1487.25903	-534.70422	285.19437	1496.90063	-516.57300	101.33182	1364.06348	-652.77155	-8.84012	1045.46069	-644.07941	212.12016	1057.46655	-849.35370	94.23969	1074.99268	-719.23529	-70.68104	862.73175	-643.55444	-9.13387	808.29877	-744.86163	-48.97775	717.81769	-739.03558	-28.63609	614.61945	-717.34174	79.05693	573.31586	-745.12030	-25.20529	567.58252	-691.79663	18.55604	523.53986	-784.65906	-35.64888	486.08441	-769.33752	-6.21650	207.01125	-663.58221	-68.20409	161.68279	-622.30249	-79.29052	157.33047	-559.85034	-37.24030	162.94011	-603.72156	20.91048	166.27766	-720.00348	76.56584	218.21288	-675.92395	55.12261	158.56418	-795.89886	53.44037	174.47169	-701.48236	277.98685	879.73059	-642.71808	212.61903	816.05798	-743.67627	275.32428	747.40106	-767.47614	248.31166	637.52930	-724.05267	143.11658	571.66858	-764.52252	244.86938	574.78864	-705.82678	205.20020	535.21228	-797.82867	256.13315	499.16852	-772.71210	223.70335	204.21780	-666.97742	299.48035	159.52066	-629.59631	307.10892	162.53496	-560.50305	258.22638	165.58940	-595.04163	221.77950	172.78168	-713.85352	153.48085	218.23407	-676.17102	174.89941	158.23206	-797.36127	173.33720	183.06581	-528.20990	304.30453	146.40674	-517.97180	-72.66315	142.84987	-875.97186	-78.65580	141.42686	-882.62878	296.14926	144.61940	
290	5.780	-489.42300	114.44598	1796.26147	-526.32001	-75.80954	1491.83057	-541.07684	286.53323	1500.26636	-520.25696	102.42506	1368.11121	-650.96088	-8.63614	1046.13318	-642.16077	212.57507	1058.39917	-847.70844	94.58250	1074.21350	-717.06427	-70.63245	862.93359	-641.55560	-9.02867	808.21399	-743.34399	-48.47768	717.73547	-737.72314	-28.52064	614.67377	-716.25452	79.20703	573.31409	-744.09949	-25.05408	567.63721	-690.96783	18.64416	523.32050	-783.93933	-35.39760	486.13733	-769.34033	-6.17391	206.99876	-663.53601	-68.15776	161.74878	-622.34357	-79.18300	157.34412	-559.93365	-37.20480	162.99619	-603.83887	20.85080	166.42429	-719.83533	76.61441	218.10060	-675.93738	55.14001	158.53447	-795.76404	53.43565	174.35909	-699.41187	278.22037	879.82446	-640.73450	212.87308	816.26685	-741.71533	275.33984	747.58398	-766.11920	248.39825	637.70416	-722.77570	143.21509	571.77515	-763.49316	245.03230	574.91718	-704.87036	205.42709	535.12903	-796.99622	256.08722	499.33130	-772.71478	223.66428	204.23227	-667.01208	299.47696	159.51381	-629.69342	307.13553	162.50490	-560.66125	258.27750	165.74832	-595.08978	221.84331	172.82666	-713.80133	153.52589	218.20943	-676.15796	174.91667	158.22656	-797.36163	173.33760	183.05368	-528.22906	304.29446	146.36520	-517.95184	-72.63219	142.88318	-876.03101	-78.65923	141.41209	-882.63422	296.16608	144.60583	
